Coordinates
version=1
nRows=49
nColumns=12
inDegrees=yes

Units are S.I. units (second, meters, Newtons, ...)
Angles are in degrees

endheader
time	SC_y	SC_z	SC_x	AC_y	AC_z	AC_x	GH_y	GH_z	GH_yy	EL_x	PS_y
       0.0              -17.33          1.604          4.761          66.41         -17.41         -1.492          58.01          12.27         -159.2          8.502          93.04
   0.03154              -17.33          1.605          4.764           66.4         -17.41         -1.495          57.99          12.28         -159.2          8.513          93.05
   0.06307              -17.33          1.606          4.767           66.4         -17.41         -1.497          57.97          12.29         -159.2          8.525          93.05
   0.09461              -17.33          1.607           4.77          66.39          -17.4           -1.5          57.95           12.3         -159.1          8.537          93.06
    0.1261              -17.33          1.608          4.774          66.39          -17.4         -1.503          57.92           12.3         -159.1           8.55          93.07
    0.1577              -17.33          1.609          4.778          66.38          -17.4         -1.506           57.9          12.31         -159.1          8.564          93.08
    0.1892              -17.33           1.61          4.781          66.38          -17.4         -1.509          57.87          12.32         -159.1           8.58          93.08
    0.2208              -17.32          1.612          4.786          66.37          -17.4         -1.513          57.84          12.33         -159.0          8.596          93.09
    0.2523              -17.32          1.613           4.79          66.37          -17.4         -1.517          57.81          12.35         -159.0          8.613           93.1
    0.2838              -17.32          1.614          4.795          66.36          -17.4         -1.521          57.78          12.36         -159.0          8.631          93.11
    0.3154              -17.32          1.616            4.8          66.35          -17.4         -1.525          57.74          12.37         -158.9          8.651          93.12
    0.3469              -17.32          1.617          4.806          66.35          -17.4          -1.53           57.7          12.39         -158.9          8.672          93.13
    0.3784              -17.32          1.619          4.812          66.34         -17.39         -1.535          57.66           12.4         -158.8          8.696          93.15
      0.41              -17.32          1.621          4.819          66.33         -17.39         -1.541          57.62          12.42         -158.8           8.72          93.16
    0.4415              -17.32          1.623          4.826          66.32         -17.39         -1.547          57.57          12.43         -158.7          8.747          93.17
     0.473              -17.31          1.625          4.834          66.31         -17.39         -1.553          57.51          12.45         -158.7          8.776          93.19
    0.5046              -17.31          1.628          4.842           66.3         -17.39          -1.56          57.46          12.47         -158.6          8.808          93.21
    0.5361              -17.31           1.63          4.851          66.29         -17.38         -1.568           57.4           12.5         -158.5          8.843          93.23
    0.5676              -17.31          1.633          4.861          66.27         -17.38         -1.576          57.33          12.52         -158.5           8.88          93.25
    0.5992               -17.3          1.636          4.872          66.26         -17.38         -1.585          57.25          12.55         -158.4          8.922          93.27
    0.6307               -17.3           1.64          4.884          66.24         -17.38         -1.596          57.17          12.58         -158.3          8.967          93.29
    0.6623               -17.3          1.644          4.898          66.23         -17.37         -1.607          57.08          12.61         -158.2          9.017          93.32
    0.6938               -17.3          1.648          4.912          66.21         -17.37         -1.619          56.98          12.65         -158.1          9.072          93.35
    0.7253              -17.29          1.652          4.928          66.18         -17.37         -1.632          56.87          12.69         -158.0          9.133          93.38
    0.7569              -17.29          1.657          4.946          66.16         -17.36         -1.648          56.75          12.73         -157.8          9.201          93.42
    0.7884              -17.28          1.663          4.966          66.13         -17.36         -1.664          56.61          12.78         -157.7          9.277          93.46
    0.8199              -17.28           1.67          4.989           66.1         -17.35         -1.683          56.46          12.84         -157.5          9.362          93.51
    0.8515              -17.27          1.677          5.014          66.07         -17.34         -1.704          56.29           12.9         -157.3          9.457          93.56
     0.883              -17.26          1.685          5.043          66.03         -17.34         -1.728          56.09          12.97         -157.1          9.565          93.62
    0.9145              -17.26          1.694          5.075          65.99         -17.33         -1.756          55.87          13.05         -156.9          9.688          93.68
    0.9461              -17.25          1.705          5.112          65.94         -17.32         -1.787          55.62          13.15         -156.6          9.828          93.76
    0.9776              -17.24          1.717          5.155          65.88         -17.31         -1.822          55.33          13.25         -156.3          9.988          93.85
     1.009              -17.23          1.731          5.204          65.82          -17.3         -1.863           55.0          13.37         -155.9          10.17          93.95
     1.041              -17.21          1.748          5.261          65.74         -17.28         -1.911          54.61          13.52         -155.5          10.39          94.06
     1.072               -17.2          1.767          5.328          65.65         -17.27         -1.967          54.16          13.68         -155.0          10.64           94.2
     1.104              -17.18          1.789          5.407          65.55         -17.25         -2.033          53.62          13.88         -154.4          10.94          94.36
     1.135              -17.16          1.816            5.5          65.42         -17.22         -2.112          52.99          14.11         -153.8          11.29          94.55
     1.167              -17.13          1.848          5.613          65.27         -17.19         -2.205          52.23          14.39         -152.9          11.71          94.78
     1.198               -17.1          1.887          5.748          65.09         -17.16         -2.319          51.31          14.73         -151.9          12.22          95.06
      1.23              -17.06          1.934          5.914          64.87         -17.12         -2.458          50.18          15.14         -150.7          12.85           95.4
     1.261              -17.01          1.993          6.119           64.6         -17.07         -2.629          48.79          15.65         -149.2          13.62          95.82
     1.293              -16.96          2.066          6.374          64.26          -17.0         -2.843          47.06          16.28         -147.3          14.58          96.34
     1.325              -16.88          2.158          6.695          63.83         -16.92         -3.112          44.88          17.08         -144.9           15.8          96.99
     1.356              -16.79          2.275          7.104          63.29         -16.82         -3.454           42.1           18.1         -141.9          17.34          97.83
     1.388              -16.66          2.425          7.627           62.6         -16.69         -3.892          38.55           19.4         -138.1          19.31           98.9
     1.419              -16.51          2.617          8.298           61.7         -16.52         -4.454          33.99          21.07         -133.1          21.84          100.3
     1.451              -16.31          2.862          9.155          60.56         -16.31         -5.172          28.17           23.2         -126.8          25.07          102.0
     1.482              -16.06           3.17          10.23          59.13         -16.04         -6.075          20.86          25.88         -118.8          29.14          104.2
     1.514              -15.75          3.546          11.55          57.38         -15.71         -7.175          11.94          29.14         -109.2          34.09          106.9
